<?xml version="1.0" encoding="UTF-8"?>
<svg width="183px" height="60px" viewBox="0 0 183 60" version="1.1" xmlns="http://www.w3.org/2000/svg" xmlns:xlink="http://www.w3.org/1999/xlink">
    <!-- Generator: Sketch 41.2 (35397) - http://www.bohemiancoding.com/sketch -->
    <title>Page 1 Copy 3</title>
    <desc>Created with Sketch.</desc>
    <defs></defs>
    <g id="US" stroke="none" stroke-width="1" fill="none" fill-rule="evenodd">
        <g id="_mobile" transform="translate(-69.000000, -1179.000000)">
            <g id="Page-1-Copy-3" transform="translate(69.000000, 1179.000000)">
                <polygon id="Fill-6" fill="#FFCA0A" points="159.662087 36.2456205 159.475243 34.3765226 182.806393 32.0177048 182.993238 33.8868026"></polygon>
                <path d="M179.044056,21.2357036 L179.041348,21.1785696 C178.976359,19.8944151 178.21815,18.9884331 177.251435,19.0374051 C176.227854,19.0890978 175.648366,20.0358897 175.713355,21.3200443 L175.716063,21.3771783 C175.781053,22.6341262 176.569048,23.5673148 177.505976,23.5183428 C178.472692,23.4693708 179.109045,22.4926515 179.044056,21.2357036 L179.044056,21.2357036 Z M172.249968,21.5839489 L172.247261,21.5268149 C172.098327,18.5857745 173.99114,16.052834 177.118748,15.8923147 C180.216571,15.7345161 182.358509,18.0307585 182.507443,20.971799 L182.510151,21.028933 C182.659084,23.9427668 180.709406,26.5056345 177.638663,26.6634332 C174.567919,26.8212319 172.398902,24.4977827 172.249968,21.5839489 L172.249968,21.5839489 Z M165.241958,12.121471 L165.23925,12.064337 C165.174261,10.8073891 164.416053,9.87420052 163.449337,9.92317252 C162.452835,9.97486518 161.846268,10.9515844 161.911258,12.2058117 L161.913965,12.2629457 C161.978955,13.5498209 162.76695,14.4530822 163.703878,14.4068308 C164.670594,14.3551382 165.304239,13.3784189 165.241958,12.121471 L165.241958,12.121471 Z M175.726895,6.42983679 L179.56397,6.23122814 L165.228419,27.0143992 L161.391343,27.2102872 L175.726895,6.42983679 Z M158.447871,12.4697163 L158.445163,12.4125823 C158.296229,9.47154189 160.189042,6.94132209 163.316651,6.78080277 C166.414473,6.62028344 168.556411,8.9437326 168.705345,11.8575664 L168.708053,11.9147004 C168.856987,14.8584615 166.907308,17.3914019 163.836565,17.5492006 C160.765822,17.7069992 158.596804,15.4134774 158.447871,12.4697163 L158.447871,12.4697163 Z" id="Fill-8" fill="#FFCA0A"></path>
                <polygon id="Fill-16" fill="#FFCA0A" points="15.6377243 14.9534127 6.46340458 17.0619292 3.58492116 5.34401881 19.5262494 0.814109167 30.4877742 0.814109167 30.4877742 55.8885602 15.6377243 55.8885602"></polygon>
                <path d="M77.2177726,28.7031168 L77.2177726,28.5480389 C77.2177726,19.8745542 73.0963693,13.546284 67.1092321,13.546284 C61.1220949,13.546284 57.157749,19.6405769 57.157749,28.3902402 L57.157749,28.5480389 C57.157749,37.2977022 61.2006236,43.547073 67.2662895,43.547073 C73.3292475,43.547073 77.2177726,37.3738808 77.2177726,28.7031168 M41.9962921,28.7031168 L41.9962921,28.5480389 C41.9962921,13.0783294 51.7934257,0.111633089 67.2662895,0.111633089 C82.7391533,0.111633089 92.3792295,12.9232514 92.3792295,28.3902402 L92.3792295,28.5480389 C92.3792295,44.0150276 82.6606246,56.9844446 67.1092321,56.9844446 C51.5578395,56.9844446 41.9962921,44.1701056 41.9962921,28.7031168" id="Fill-18" fill="#FFCA0A"></path>
                <path d="M137.00872,28.7031168 L137.00872,28.5480389 C137.00872,19.8745542 132.887317,13.546284 126.90018,13.546284 C120.913043,13.546284 116.948697,19.6405769 116.948697,28.3902402 L116.948697,28.5480389 C116.948697,37.2977022 120.991571,43.547073 127.057237,43.547073 C133.120195,43.547073 137.00872,37.3738808 137.00872,28.7031168 M101.78724,28.7031168 L101.78724,28.5480389 C101.78724,13.0783294 111.584373,0.111633089 127.057237,0.111633089 C142.530101,0.111633089 152.170177,12.9232514 152.170177,28.3902402 L152.170177,28.5480389 C152.170177,44.0150276 142.451572,56.9844446 126.90018,56.9844446 C111.348787,56.9844446 101.78724,44.1701056 101.78724,28.7031168" id="Fill-20" fill="#FFCA0A"></path>
                <path d="M121.233927,58.2552679 L121.233927,57.4499507 C128.463984,57.4499507 134.681292,54.6177369 139.208878,49.258024 C143.490047,44.192143 145.848616,37.2462816 145.848616,29.7018735 L145.848616,29.5467955 C145.848616,22.0105494 143.509002,15.0946153 139.25762,10.0695444 C134.767944,4.76152412 128.588547,1.95651701 121.388277,1.95651701 L121.388277,1.14847907 C128.832257,1.14847907 135.222869,4.05415085 139.869602,9.54717641 C144.242839,14.7191633 146.65015,21.8201028 146.65015,29.5467955 L146.65015,29.7018735 C146.65015,37.4367282 144.223884,44.567595 139.820861,49.7803919 C135.136217,55.3251102 128.707694,58.2552679 121.233927,58.2552679" id="Fill-22" fill="#FFFFFF"></path>
                <path d="M61.1025981,58.2552679 L61.1025981,57.4499507 C68.3326552,57.4499507 74.5499628,54.6177369 79.0775491,49.258024 C83.3587178,44.192143 85.717287,37.2462816 85.717287,29.7018735 L85.717287,29.5467955 C85.717287,22.0105494 83.377673,15.0946153 79.1262911,10.0695444 C74.6366151,4.76152412 68.457218,1.95651701 61.2569476,1.95651701 L61.2569476,1.14847907 C68.7009278,1.14847907 75.0915401,4.05415085 79.7382734,9.54717641 C84.1115102,14.7191633 86.5188214,21.8201028 86.5188214,29.5467955 L86.5188214,29.7018735 C86.5188214,37.4367282 84.092555,44.567595 79.6895315,49.7803919 C75.0048877,55.3251102 68.576365,58.2552679 61.1025981,58.2552679" id="Fill-24" fill="#FFFFFF"></path>
                <polygon id="Fill-26" fill="#FFFFFF" points="24.8667432 57.1316327 25.6682777 57.1316327 25.6682777 2.054461 24.8667432 2.054461"></polygon>
                <path d="M14.4026572,56.1913704 L27.3815575,56.1913704 L27.3815575,2.9941792 L17.4842321,2.9941792 L2.53940616,7.2438602 L4.97921195,17.1824547 L14.4026572,15.0168043 L14.4026572,56.1913704 Z M29.2527071,58.0713509 L12.5315076,58.0713509 L12.5315076,17.3756221 L3.60360558,19.4270046 L0.289152423,5.9297783 L17.224275,1.11419868 L29.2527071,1.11419868 L29.2527071,58.0713509 Z" id="Fill-28" fill="#434143"></path>
                <path d="M64.9394026,15.7290747 C59.5452925,15.7290747 55.9221403,21.3173236 55.9221403,29.6316803 L55.9221403,29.789479 C55.9221403,38.0657463 59.6942263,43.8471625 65.0937521,43.8471625 C70.4878621,43.8471625 74.1110144,38.2616343 74.1110144,29.9445569 L74.1110144,29.789479 C74.1110144,21.5104909 70.3389284,15.7290747 64.9394026,15.7290747 M65.0937521,45.727143 C58.5921165,45.727143 54.0509907,39.1730576 54.0509907,29.789479 L54.0509907,29.6316803 C54.0509907,20.1909677 58.4269354,13.8490942 64.9394026,13.8490942 C71.4410382,13.8490942 75.982164,20.4031797 75.982164,29.789479 L75.982164,29.9445569 C75.982164,39.3852695 71.6062193,45.727143 65.0937521,45.727143 M65.0937521,2.29170312 C50.9937868,2.29170312 40.7606834,13.8572562 40.7606834,29.789479 L40.7606834,29.9445569 C40.7606834,37.4427137 43.0705107,44.3069552 47.265027,49.2776128 C51.6842978,54.5148957 57.7959978,57.2845341 64.9394026,57.2845341 C72.0828073,57.2845341 78.2215862,54.487689 82.6923069,49.1987134 C86.938273,44.1763632 89.2751791,37.2821944 89.2751791,29.789479 L89.2751791,29.6316803 C89.2751791,22.1471269 86.9545203,15.2801648 82.7410488,10.3013452 C78.3109464,5.06134157 72.2073701,2.29170312 65.0937521,2.29170312 M64.9394026,59.1645147 C57.2300495,59.1645147 50.6255142,56.1663402 45.8379707,50.4937507 C41.3564185,45.1830097 38.8895338,37.8861823 38.8895338,29.9445569 L38.8895338,29.789479 C38.8895338,21.8587362 41.3943289,14.5319815 45.9435783,9.16138591 C50.7229981,3.51872369 57.5225013,0.411722599 65.0937521,0.411722599 C72.7733184,0.411722599 79.3697301,3.40989703 84.1681051,9.08248658 C88.6659046,14.4041102 91.1463287,21.7009376 91.1463287,29.6316803 L91.1463287,29.789479 C91.1463287,46.8099683 80.1252304,59.1645147 64.9394026,59.1645147" id="Fill-29" fill="#434143"></path>
                <path d="M124.730079,15.7290747 C119.335969,15.7290747 115.712817,21.3173236 115.712817,29.6316803 L115.712817,29.789479 C115.712817,38.0657463 119.484903,43.8471625 124.884429,43.8471625 C130.278539,43.8471625 133.901691,38.2616343 133.901691,29.9445569 L133.901691,29.789479 C133.901691,21.5104909 130.129605,15.7290747 124.730079,15.7290747 M124.884429,45.727143 C118.382793,45.727143 113.841668,39.1730576 113.841668,29.789479 L113.841668,29.6316803 C113.841668,20.1909677 118.217612,13.8490942 124.730079,13.8490942 C131.231715,13.8490942 135.772841,20.4031797 135.772841,29.789479 L135.772841,29.9445569 C135.772841,39.3852695 131.396896,45.727143 124.884429,45.727143 M124.884429,2.29170312 C110.784464,2.29170312 100.55136,13.8572562 100.55136,29.789479 L100.55136,29.9445569 C100.55136,37.4427137 102.861188,44.3069552 107.055704,49.2776128 C111.474975,54.5148957 117.586675,57.2845341 124.730079,57.2845341 C131.873484,57.2845341 138.012263,54.487689 142.482984,49.1987134 C146.726242,44.1763632 149.065856,37.2821944 149.065856,29.789479 L149.065856,29.6316803 C149.065856,22.1471269 146.745197,15.2801648 142.531726,10.3013452 C138.101623,5.06134157 131.998047,2.29170312 124.884429,2.29170312 M124.730079,59.1645147 C117.020726,59.1645147 110.416191,56.1663402 105.628648,50.4937507 C101.147095,45.1830097 98.6802107,37.8861823 98.6802107,29.9445569 L98.6802107,29.789479 C98.6802107,21.8587362 101.185006,14.5319815 105.734255,9.16138591 C110.513675,3.51872369 117.313178,0.411722599 124.884429,0.411722599 C132.563995,0.411722599 139.160407,3.40989703 143.958782,9.08248658 C148.456582,14.4041102 150.937006,21.7009376 150.937006,29.6316803 L150.937006,29.789479 C150.937006,46.8099683 139.915907,59.1645147 124.730079,59.1645147" id="Fill-30" fill="#434143"></path>
            </g>
        </g>
    </g>
</svg>