<svg xmlns="http://www.w3.org/2000/svg" viewBox="0 0 469.49 185.21"><defs><style>.cls-1{fill:#1a1a1a;}</style></defs><title>Asset 1</title><g id="Layer_2" data-name="Layer 2"><g id="Layer_1-2" data-name="Layer 1"><circle class="cls-1" cx="463.25" cy="178.97" r="6.24"/><circle class="cls-1" cx="421.6" cy="178.97" r="6.24"/><circle class="cls-1" cx="380.22" cy="178.97" r="6.24"/><circle class="cls-1" cx="338.65" cy="178.97" r="6.24"/><circle class="cls-1" cx="296.84" cy="178.97" r="6.24"/><circle class="cls-1" cx="255.52" cy="178.97" r="6.24"/><circle class="cls-1" cx="214.21" cy="178.97" r="6.24"/><circle class="cls-1" cx="172.43" cy="178.97" r="6.24"/><circle class="cls-1" cx="130.86" cy="178.97" r="6.24"/><circle class="cls-1" cx="89.05" cy="178.97" r="6.24"/><circle class="cls-1" cx="47.73" cy="178.97" r="6.24"/><circle class="cls-1" cx="6.24" cy="178.97" r="6.24"/><path class="cls-1" d="M23.12,115.66H39.6c0,4.62,4.61,8.19,10.28,8.19,5.35,0,9.45-2.42,9.45-7.14,0-2.83-1.58-5.46-8-7.56l-8.61-2.62c-16-4.3-19-14.06-19-20.89,0-13,11.12-21.83,25.5-21.83,13.86,0,24.46,8.29,24.46,22.36H57.23c0-4.3-2.63-8-8.29-8-5.15,0-8.51,3.15-8.51,7.14,0,1.47.42,4.72,7.14,6.61l7.56,2.31c10.29,3.15,20.78,8.5,20.78,21.62C75.91,131.4,62.48,138,49.25,138,33.82,138,23.12,129,23.12,115.66Z"/><path class="cls-1" d="M153.15,88.69c0,12.07-7.56,23.82-24.35,23.82H115.47v24.56H99V64.76H128.8C145.59,64.76,153.15,76.72,153.15,88.69Zm-16.58,0c0-4.62-2.31-9.55-8.4-9.55h-12.7v19h12.6C134.26,98.14,136.57,93.31,136.57,88.69Z"/><path class="cls-1" d="M194.39,111.67h-3.25v25.4H174.66V64.76h29.6c16.79,0,24.35,12,24.35,23.93,0,10.18-5.35,19.1-17,22l18.68,26.34H211.08Zm-3.25-13h10.5c7.24,0,10.39-4.72,10.39-9.55s-3.26-10-10-10H191.14Z"/><path class="cls-1" d="M252.53,64.76H269v72.31H252.53Z"/><path class="cls-1" d="M350.87,64.76v72.31H336.39L312.67,95.51v41.56H296.19V64.76H311.3l23.1,41v-41Z"/><path class="cls-1" d="M373.75,101A36.89,36.89,0,0,1,410.9,63.81c11.44,0,21.41,4.83,27.71,12.39L426.43,86.38a20.28,20.28,0,0,0-15.53-7.24c-11.65,0-20.57,9.76-20.57,21.83,0,11.86,8.92,22.35,20.57,22.35,8.4,0,14.9-3.35,17-9.65a8.26,8.26,0,0,0,.53-1.68H408.07V98.66h38.3c0,27.39-14.69,39.36-35.47,39.36A36.93,36.93,0,0,1,373.75,101Z"/><path class="cls-1" d="M210.75,7.19H201.2v29H193v-29h-9.54V0h27.33Z"/><path class="cls-1" d="M249.58,0V36.15h-8.24V21.88H229.43V36.15H221.2V0h8.23V14.48h11.91V0Z"/><path class="cls-1" d="M286.84,29v7.19H263.18V0h23.18V7.19H271.41v7.45h13.12V22H271.41V29Z"/></g></g></svg>