<svg width="25" height="18" xmlns="http://www.w3.org/2000/svg" xmlns:xlink="http://www.w3.org/1999/xlink"><defs><rect id="a" width="25" height="17.857" rx="2"/><linearGradient x1="50%" y1="0%" x2="50%" y2="100%" id="e"><stop stop-color="#FFF" offset="0%"/><stop stop-color="#F0F0F0" offset="100%"/></linearGradient><path d="M1.786 2.381a.595.595 0 1 1 0-1.19.595.595 0 0 1 0 1.19zm2.38 0a.595.595 0 1 1 0-1.19.595.595 0 0 1 0 1.19zm2.382 0a.595.595 0 1 1 0-1.19.595.595 0 0 1 0 1.19zm2.38 0a.595.595 0 1 1 0-1.19.595.595 0 0 1 0 1.19zm-5.952 1.19a.595.595 0 1 1 0-1.19.595.595 0 0 1 0 1.19zm2.381 0a.595.595 0 1 1 0-1.19.595.595 0 0 1 0 1.19zm2.381 0a.595.595 0 1 1 0-1.19.595.595 0 0 1 0 1.19zm1.19 1.19a.595.595 0 1 1 0-1.19.595.595 0 0 1 0 1.19zm-2.38 0a.595.595 0 1 1 0-1.19.595.595 0 0 1 0 1.19zm-2.381 0a.595.595 0 1 1 0-1.19.595.595 0 0 1 0 1.19zm-2.381 0a.595.595 0 1 1 0-1.19.595.595 0 0 1 0 1.19zm1.19 1.191a.595.595 0 1 1 0-1.19.595.595 0 0 1 0 1.19zm2.381 0a.595.595 0 1 1 0-1.19.595.595 0 0 1 0 1.19zm2.381 0a.595.595 0 1 1 0-1.19.595.595 0 0 1 0 1.19zm1.19 1.19a.595.595 0 1 1 0-1.19.595.595 0 0 1 0 1.19zm-2.38 0a.595.595 0 1 1 0-1.19.595.595 0 0 1 0 1.19zm-2.381 0a.595.595 0 1 1 0-1.19.595.595 0 0 1 0 1.19zm-2.381 0a.595.595 0 1 1 0-1.19.595.595 0 0 1 0 1.19z" id="d"/><filter x="-6%" y="-8.4%" width="112%" height="133.6%" filterUnits="objectBoundingBox" id="c"><feOffset dy="1" in="SourceAlpha" result="shadowOffsetOuter1"/><feColorMatrix values="0 0 0 0 0 0 0 0 0 0 0 0 0 0 0 0 0 0 0.06 0" in="shadowOffsetOuter1"/></filter></defs><g fill="none" fill-rule="evenodd"><mask id="b" fill="#fff"><use xlink:href="#a"/></mask><use fill="#FFF" xlink:href="#a"/><path d="M0 0h25v1.19H0V0zm0 2.381h25v1.19H0v-1.19zm0 2.38h25v1.191H0v-1.19zm0 2.382h25v1.19H0v-1.19zm0 2.38h25v1.191H0v-1.19zm0 2.382h25v1.19H0v-1.19zm0 2.38h25v1.191H0v-1.19zm0 2.382h25v1.19H0v-1.19z" fill="#D02F44" mask="url(#b)"/><path fill="#46467F" mask="url(#b)" d="M0 0h10.714v8.333H0z"/><g mask="url(#b)"><use fill="#000" filter="url(#c)" xlink:href="#d"/><use fill="url(#e)" xlink:href="#d"/></g></g></svg>