<?xml version="1.0" encoding="UTF-8"?>
<svg width="187px" height="174px" viewBox="0 0 187 174" version="1.1" xmlns="http://www.w3.org/2000/svg" xmlns:xlink="http://www.w3.org/1999/xlink">
    <!-- Generator: Sketch 41.2 (35397) - http://www.bohemiancoding.com/sketch -->
    <title>Local Partners</title>
    <desc>Created with Sketch.</desc>
    <defs>
        <polygon id="path-1" points="21.9393123 33.4153635 21.9393123 0.246336556 0.00634633328 0.246336556 0.00634633328 33.4153635 21.9393123 33.4153635"></polygon>
        <polygon id="path-3" points="1.87386286e-20 0.446060517 1.87386286e-20 35.5212582 23.8451941 35.5212582 23.8451941 0.446060517 0 0.446060517"></polygon>
    </defs>
    <g id="Components" stroke="none" stroke-width="1" fill="none" fill-rule="evenodd">
        <g id="_carousel-desktop" transform="translate(-385.000000, -116.000000)">
            <g id="1" transform="translate(101.000000, 76.000000)">
                <g id="Local-Partners" transform="translate(284.465517, 40.000000)">
                    <g id="Group-3" transform="translate(3.918970, 0.100855)" fill="#FBC506">
                        <path d="M49.5667281,161.079708 C6.45517903,137.022232 -13.4635181,89.7155421 10.6529553,46.7067015 C34.7694286,3.70061956 88.8040449,-12.1997689 131.915594,11.8577064 C175.029908,35.9151818 194.713552,62.7753627 167.24826,129.651337 C148.518656,175.250474 92.6782771,185.137183 49.5667281,161.079708" id="Fill-1"></path>
                    </g>
                    <polygon id="Fill-4" fill="#FFFFFF" points="2.26259586 93.7539773 2.26259586 60.5849504 10.837895 60.5849504 10.837895 86.2948082 24.1972211 86.2948082 24.1972211 93.7539773"></polygon>
                    <path d="M59.9908681,77.1945668 C59.9908681,71.7739798 56.4512413,67.5975072 50.9675849,67.5975072 C45.4839286,67.5975072 41.8945258,71.7739798 41.8945258,77.1945668 C41.8945258,82.5654996 45.4839286,86.7916264 50.9675849,86.7916264 C56.4512413,86.7916264 59.9908681,82.5654996 59.9908681,77.1945668 M33.172664,77.1945668 C33.172664,67.0982063 40.7994537,60.0390297 50.9675849,60.0390297 C61.1384815,60.0390297 68.7154953,67.0982063 68.7154953,77.1945668 C68.7154953,87.2909273 61.1384815,94.3501039 50.9675849,94.3501039 C40.7994537,94.3501039 33.172664,87.2909273 33.172664,77.1945668" id="Fill-6" fill="#FFFFFF"></path>
                    <path d="M78.8357862,77.1945668 C78.8357862,66.9492436 86.611904,60.0390297 96.8325765,60.0390297 C104.857574,60.0390297 109.193617,64.5630819 111.339516,68.8912758 L103.961606,72.4194848 C102.863769,69.785052 100.021006,67.5975072 96.8325765,67.5975072 C91.3986962,67.5975072 87.5604134,71.7243256 87.5604134,77.1945668 C87.5604134,82.6151538 91.3986962,86.7916264 96.8325765,86.7916264 C100.021006,86.7916264 102.863769,84.6040816 103.961606,81.9696488 L111.339516,85.4482036 C109.193617,89.677089 104.857574,94.3501039 96.8325765,94.3501039 C86.611904,94.3501039 78.8357862,87.3902358 78.8357862,77.1945668" id="Fill-8" fill="#FFFFFF"></path>
                    <path d="M136.514006,69.0388592 L132.277515,81.5213814 L140.700721,81.5213814 L136.514006,69.0388592 Z M144.688332,93.7528739 L143.045724,88.9805505 L129.932512,88.9805505 L128.289904,93.7528739 L118.566992,93.7528739 L131.080126,60.5866055 L141.89811,60.5866055 L154.411244,93.7528739 L144.688332,93.7528739 Z" id="Fill-10" fill="#FFFFFF"></path>
                    <g id="Group-14" transform="translate(164.175927, 60.338614)">
                        <mask id="mask-2" fill="white">
                            <use xlink:href="#path-1"></use>
                        </mask>
                        <g id="Clip-13"></g>
                        <polygon id="Fill-12" fill="#FFFFFF" mask="url(#mask-2)" points="0.00634633328 33.4153635 0.00634633328 0.246336556 8.58164547 0.246336556 8.58164547 25.9561944 21.9409715 25.9561944 21.9409715 33.4153635"></polygon>
                    </g>
                    <polygon id="Fill-15" fill="#FBC506" points="21.2280825 96.6513017 4.52546825 96.6513017 4.52546825 95.8347655 20.4095438 95.8347655 20.4095438 89.1921327 7.05021772 89.1921327 7.05021772 63.0740067 7.86875643 63.0740067 7.86875643 88.3755964 21.2280825 88.3755964"></polygon>
                    <path d="M47.5902832,62.9352507 C37.5161733,62.9352507 30.2018662,69.9778759 30.2018662,79.6825197 C30.2018662,89.3871635 37.5161733,96.4325472 47.5902832,96.4325472 C57.6367397,96.4325472 64.9289241,89.3871635 64.9289241,79.6825197 C64.9289241,69.9778759 57.6367397,62.9352507 47.5902832,62.9352507 M47.5902832,97.2490835 C37.0405359,97.2490835 29.3833275,89.8616372 29.3833275,79.6825197 C29.3833275,69.5061607 37.0405359,62.1187144 47.5902832,62.1187144 C58.1096117,62.1187144 65.7474628,69.5061607 65.7474628,79.6825197 C65.7474628,89.8616372 58.1096117,97.2490835 47.5902832,97.2490835" id="Fill-17" fill="#FBC506"></path>
                    <path d="M93.4538921,62.9352507 C88.5564865,62.9352507 84.0987689,64.5793575 80.9020434,67.56137 C77.6555419,70.5957952 75.8663711,74.899162 75.8663711,79.6825197 C75.8663711,89.3871635 83.2636382,96.4325472 93.4538921,96.4325472 C101.252133,96.4325472 105.328234,92.0022863 107.402234,88.1264977 L100.784791,85.0037982 C99.4436044,87.7816766 96.4902283,89.690606 93.4538921,89.690606 C87.9342865,89.690606 83.7724596,85.3872392 83.7724596,79.6825197 C83.7724596,73.8867674 87.8430305,69.677192 93.4538921,69.677192 C96.4902283,69.677192 99.4436044,71.5833627 100.784791,74.3612412 L107.405,71.191646 C105.389071,67.3379259 101.35445,62.9352507 93.4538921,62.9352507 M93.4538921,97.2490835 C82.7880008,97.2490835 75.0478324,89.8616372 75.0478324,79.6825197 C75.0478324,69.5061607 82.7880008,62.1187144 93.4538921,62.1187144 C102.479941,62.1187144 106.647298,67.8068826 108.328621,71.1971632 L108.511133,71.5695699 L100.369991,75.4646685 L100.204071,75.0674347 C99.0841111,72.3750719 96.3077163,70.4937282 93.4538921,70.4937282 C88.3186678,70.4937282 84.5909983,74.3584826 84.5909983,79.6825197 C84.5909983,85.0093153 88.3186678,88.8713112 93.4538921,88.8713112 C96.3077163,88.8713112 99.0841111,86.992726 100.204071,84.3003633 L100.369991,83.905888 L108.516664,87.7485738 L108.325856,88.1237391 C106.597522,91.5305711 102.366562,97.2490835 93.4538921,97.2490835" id="Fill-19" fill="#FBC506"></path>
                    <path d="M141.603602,95.8344896 L150.441608,95.8344896 L138.235426,63.481999 L127.9871,63.481999 L115.780918,95.8344896 L124.618924,95.8344896 L126.264297,91.0594076 L139.958229,91.0594076 L141.603602,95.8344896 Z M151.625171,96.6510259 L141.020117,96.6510259 L139.374743,91.8787025 L126.847783,91.8787025 L125.202409,96.6510259 L114.597355,96.6510259 L127.420207,62.6654627 L138.802319,62.6654627 L138.904637,62.9302853 L151.625171,96.6510259 Z" id="Fill-21" fill="#FBC506"></path>
                    <path d="M161.213688,95.8344896 L182.329775,95.8344896 L182.329775,89.1918568 L168.970449,89.1918568 L168.970449,63.481999 L161.213688,63.481999 L161.213688,95.8344896 Z M183.148313,96.6510259 L160.395149,96.6510259 L160.395149,62.6654627 L169.788987,62.6654627 L169.788987,88.3753205 L183.148313,88.3753205 L183.148313,96.6510259 Z" id="Fill-23" fill="#FBC506"></path>
                    <path d="M49.0921358,110.198907 C49.0921358,109.465128 48.5003544,109.051343 47.7647757,109.051343 L45.5912236,109.051343 L45.5912236,111.32992 L47.7647757,111.32992 C48.5003544,111.32992 49.0921358,110.916135 49.0921358,110.198907 L49.0921358,110.198907 Z M42.8424821,117.293945 L42.8424821,106.659664 L48.1823411,106.659664 C50.5798852,106.659664 51.8878879,108.270668 51.8878879,110.198907 C51.8878879,112.113354 50.5798852,113.721599 48.1823411,113.721599 L45.5912236,113.721599 L45.5912236,117.293945 L42.8424821,117.293945 Z" id="Fill-25" fill="#FFFFFF"></path>
                    <path d="M59.787063,109.369682 L58.4292843,113.372364 L61.1310151,113.372364 L59.787063,109.369682 Z M62.4085992,117.295049 L61.8804205,115.764043 L57.6771136,115.764043 L57.1489349,117.295049 L54.0324041,117.295049 L58.0449029,106.658009 L61.5126311,106.658009 L65.52513,117.295049 L62.4085992,117.295049 Z" id="Fill-27" fill="#FFFFFF"></path>
                    <path d="M75.7571405,110.182907 C75.7571405,109.449128 75.1653591,109.051894 74.4297804,109.051894 L72.2562283,109.051894 L72.2562283,111.330472 L74.4297804,111.330472 C75.1653591,111.330472 75.7571405,110.933238 75.7571405,110.182907 L75.7571405,110.182907 Z M75.4529538,117.294497 L73.663783,113.722151 L72.2562283,113.722151 L72.2562283,117.294497 L69.5074868,117.294497 L69.5074868,106.660216 L74.8473457,106.660216 C77.2117059,106.660216 78.5528926,108.221565 78.5528926,110.199459 C78.5528926,112.0477 77.4356979,113.038026 76.4291165,113.388364 L78.6026686,117.294497 L75.4529538,117.294497 Z" id="Fill-29" fill="#FFFFFF"></path>
                    <polygon id="Fill-31" fill="#FFFFFF" points="85.4933266 117.294221 85.4933266 109.051619 82.5040011 109.051619 82.5040011 106.65994 91.2148016 106.65994 91.2148016 109.051619 88.2420681 109.051619 88.2420681 117.294221"></polygon>
                    <polygon id="Fill-33" fill="#FFFFFF" points="102.981572 117.294221 98.4740785 111.139855 98.4740785 117.294221 95.725337 117.294221 95.725337 106.65994 98.5542732 106.65994 102.868193 112.510863 102.868193 106.65994 105.633527 106.65994 105.633527 117.294221"></polygon>
                    <polygon id="Fill-35" fill="#FFFFFF" points="110.751883 117.294221 110.751883 106.65994 118.566715 106.65994 118.566715 109.051619 113.500624 109.051619 113.500624 110.709518 118.456102 110.709518 118.456102 113.101197 113.500624 113.101197 113.500624 114.902542 118.566715 114.902542 118.566715 117.294221"></polygon>
                    <path d="M129.614499,110.182907 C129.614499,109.449128 129.022718,109.051894 128.287139,109.051894 L126.113587,109.051894 L126.113587,111.330472 L128.287139,111.330472 C129.022718,111.330472 129.614499,110.933238 129.614499,110.182907 L129.614499,110.182907 Z M129.310312,117.294497 L127.521141,113.722151 L126.113587,113.722151 L126.113587,117.294497 L123.364845,117.294497 L123.364845,106.660216 L128.704704,106.660216 C131.069064,106.660216 132.410251,108.221565 132.410251,110.199459 C132.410251,112.0477 131.293056,113.038026 130.286475,113.388364 L132.460027,117.294497 L129.310312,117.294497 Z" id="Fill-37" fill="#FFFFFF"></path>
                    <path d="M136.361913,115.795215 L137.816478,113.660083 C138.582475,114.424206 139.766038,115.061436 141.237196,115.061436 C142.163582,115.061436 142.738772,114.7442 142.738772,114.217314 C142.738772,112.813202 136.71311,113.977318 136.71311,109.880844 C136.71311,108.093292 138.214686,106.498839 140.949601,106.498839 C142.658577,106.498839 144.146326,107.009174 145.280113,107.982949 L143.778537,110.038083 C142.882569,109.290511 141.715598,108.923621 140.662006,108.923621 C139.862825,108.923621 139.511627,109.193961 139.511627,109.6574 C139.511627,110.964962 145.537289,109.974636 145.537289,113.930423 C145.537289,116.065555 143.952753,117.486217 141.093398,117.486217 C138.936438,117.486217 137.432097,116.799334 136.361913,115.795215" id="Fill-39" fill="#FFFFFF"></path>
                    <g id="Group-43" transform="translate(0.000000, 60.789360)">
                        <mask id="mask-4" fill="white">
                            <use xlink:href="#path-3"></use>
                        </mask>
                        <g id="Clip-42"></g>
                        <path d="M1.91056891,33.6150874 L21.9343487,33.6150874 L21.9343487,28.0620892 L8.57502261,28.0620892 L8.57502261,2.35223131 L1.91056891,2.35223131 L1.91056891,33.6150874 Z M23.8451941,35.5212582 L-0.000276533351,35.5212582 L-0.000276533351,0.446060517 L10.485868,0.446060517 L10.485868,26.1559184 L23.8451941,26.1559184 L23.8451941,35.5212582 Z" id="Fill-41" fill="#434143" mask="url(#mask-4)"></path>
                    </g>
                    <path d="M49.6612414,70.1533209 C44.8827451,70.1533209 41.5422223,73.7091156 41.5422223,78.7986744 C41.5422223,83.8882331 44.8827451,87.4412693 49.6612414,87.4412693 C54.4120843,87.4412693 57.7277192,83.8882331 57.7277192,78.7986744 C57.7277192,73.7091156 54.4120843,70.1533209 49.6612414,70.1533209 M49.6612414,89.3474401 C43.8512758,89.3474401 39.6341422,84.911662 39.6341422,78.7986744 C39.6341422,72.6856867 43.8512758,68.2471501 49.6612414,68.2471501 C55.4435537,68.2471501 59.6385646,72.6856867 59.6385646,78.7986744 C59.6385646,84.911662 55.4435537,89.3474401 49.6612414,89.3474401 M49.6612414,62.5948433 C39.9023795,62.5948433 32.8203605,69.4085074 32.8203605,78.7986744 C32.8203605,88.1860828 39.9023795,95.0025054 49.6612414,95.0025054 C59.3896846,95.0025054 66.4523463,88.1860828 66.4523463,78.7986744 C66.4523463,69.4085074 59.3896846,62.5948433 49.6612414,62.5948433 M49.6612414,96.9086762 C38.7962461,96.9086762 30.909515,89.2922687 30.909515,78.7986744 C30.909515,68.30508 38.7962461,60.6886726 49.6612414,60.6886726 C60.4985833,60.6886726 68.3631918,68.30508 68.3631918,78.7986744 C68.3631918,89.2922687 60.4985833,96.9086762 49.6612414,96.9086762" id="Fill-44" fill="#434143"></path>
                    <path d="M95.5245738,62.5945675 C90.7654349,62.5945675 86.4404533,64.1862615 83.3460451,67.0744826 C80.1659116,70.0454608 78.4845889,74.1005564 78.4845889,78.7983985 C78.4845889,83.4107249 80.210157,87.5678876 83.3488105,90.5030044 C86.445984,93.4050184 90.7709655,95.0022295 95.5245738,95.0022295 C102.719972,95.0022295 106.632918,91.0960966 108.712449,87.4851305 L103.096057,84.8341462 C101.569593,87.5347847 98.585798,89.3471642 95.5245738,89.3471642 C89.6952508,89.3471642 85.2983706,84.8120777 85.2983706,78.7983985 C85.2983706,72.6854108 89.5984641,68.2468742 95.5245738,68.2468742 C98.585798,68.2468742 101.566827,70.0592537 103.093292,72.7571336 L108.723511,70.0620123 C106.696521,66.4731147 102.816758,62.5945675 95.5245738,62.5945675 M95.5245738,96.9084003 C84.5434345,96.9084003 76.5737434,89.2919928 76.5737434,78.7983985 C76.5737434,68.3048042 84.5434345,60.6883967 95.5245738,60.6883967 C104.846513,60.6883967 109.152137,66.566906 110.888767,70.070288 L111.314628,70.9364784 L102.158609,75.3170851 L101.771462,74.3902061 C100.894851,72.2854184 98.4668886,70.153045 95.5245738,70.153045 C90.7045975,70.153045 87.2064507,73.7888382 87.2064507,78.7983985 C87.2064507,83.8079588 90.7045975,87.4409934 95.5245738,87.4409934 C98.4668886,87.4409934 100.894851,85.3113786 101.771462,83.2065909 L102.155844,82.2824704 L111.325689,86.6106643 L110.883236,87.4823719 C109.099596,91.0023053 104.730369,96.9084003 95.5245738,96.9084003" id="Fill-46" fill="#434143"></path>
                    <path d="M132.30185,82.1713001 L138.06757,82.1713001 L135.202685,73.6280137 L132.30185,82.1713001 Z M140.72229,84.0774709 L129.636068,84.0774709 L135.210981,67.655713 L140.72229,84.0774709 Z M144.062813,94.4055512 L151.722787,94.4055512 L139.92864,63.142695 L130.43525,63.142695 L118.641103,94.4055512 L126.301076,94.4055512 L127.943684,89.6304692 L142.420205,89.6304692 L144.062813,94.4055512 Z M154.48259,96.3089634 L142.699504,96.3089634 L141.05413,91.53664 L129.309759,91.53664 L127.664386,96.3089634 L115.8813,96.3089634 L129.110655,61.2365242 L141.253234,61.2365242 L154.48259,96.3089634 Z" id="Fill-48" fill="#434143"></path>
                    <path d="M163.830247,94.4044477 L183.854026,94.4044477 L183.854026,88.8514495 L170.4947,88.8514495 L170.4947,63.1415916 L163.830247,63.1415916 L163.830247,94.4044477 Z M185.764872,96.3106185 L161.919401,96.3106185 L161.919401,61.2354208 L172.405546,61.2354208 L172.405546,86.9452787 L185.764872,86.9452787 L185.764872,96.3106185 Z" id="Fill-50" fill="#434143"></path>
                    <path d="M76.5438778,35.5167355 C76.5438778,33.2022966 75.0340057,31.4202614 72.6917683,31.4202614 C70.3522962,31.4202614 68.8203014,33.2022966 68.8203014,35.5167355 C68.8203014,37.8091059 70.3522962,39.6132097 72.6917683,39.6132097 C75.0340057,39.6132097 76.5438778,37.8091059 76.5438778,35.5167355" id="Fill-52" fill="#FFFFFF"></path>
                    <path d="M129.422308,46.2252224 C129.422308,43.9107834 127.912436,42.1287482 125.570199,42.1287482 C123.230727,42.1287482 121.698732,43.9107834 121.698732,46.2252224 C121.698732,48.5175927 123.230727,50.3216965 125.570199,50.3216965 C127.912436,50.3216965 129.422308,48.5175927 129.422308,46.2252224" id="Fill-54" fill="#FFFFFF"></path>
                    <path d="M113.914041,17.5181799 C113.914041,16.3954426 113.181228,15.5292521 112.044676,15.5292521 C110.910889,15.5292521 110.167015,16.3954426 110.167015,17.5181799 C110.167015,18.629883 110.910889,19.5071078 112.044676,19.5071078 C113.181228,19.5071078 113.914041,18.629883 113.914041,17.5181799" id="Fill-56" fill="#FFFFFF"></path>
                    <path d="M40.0942937,45.7910237 C40.0942937,44.6682863 39.3614803,43.8020959 38.2249282,43.8020959 C37.0911415,43.8020959 36.3472668,44.6682863 36.3472668,45.7910237 C36.3472668,46.9027268 37.0911415,47.7799515 38.2249282,47.7799515 C39.3614803,47.7799515 40.0942937,46.9027268 40.0942937,45.7910237" id="Fill-58" fill="#FFFFFF"></path>
                    <path d="M80.6114069,18.362026 C80.6114069,17.2392886 79.8785935,16.3730981 78.7420414,16.3730981 C77.6082547,16.3730981 76.86438,17.2392886 76.86438,18.362026 C76.86438,19.4737291 77.6082547,20.3509538 78.7420414,20.3509538 C79.8785935,20.3509538 80.6114069,19.4737291 80.6114069,18.362026" id="Fill-60" fill="#FFFFFF"></path>
                    <path d="M166.369376,46.1413619 C166.369376,45.0186245 165.636562,44.152434 164.50001,44.152434 C163.366224,44.152434 162.622349,45.0186245 162.622349,46.1413619 C162.622349,47.253065 163.366224,48.1302897 164.50001,48.1302897 C165.636562,48.1302897 166.369376,47.253065 166.369376,46.1413619" id="Fill-62" fill="#FFFFFF"></path>
                    <path d="M71.611076,37.2422201 L37.4923914,47.054448 L123.864818,45.8268851 L71.611076,37.2422201 Z M35.4598713,47.355132 L71.594484,36.9636047 L71.6249026,36.9691218 L125.4217,45.8075751 L125.402343,46.0779148 L35.4598713,47.355132 Z" id="Fill-64" fill="#FFFFFF"></path>
                    <path d="M95.8362269,25.1842416 L117.784679,32.2930725 L111.421646,17.42163 L95.8362269,25.1842416 Z M77.7011699,19.5953819 L71.8386629,36.8336761 L95.1172402,25.2366544 L77.7011699,19.5953819 Z M164.496692,54.6209254 C164.430324,54.6209254 164.372252,54.5740298 164.361191,54.5078241 L163.252292,47.3079605 L118.271377,32.737202 L124.576338,47.4679575 C124.603991,47.5369217 124.573572,47.6169201 124.504439,47.6445058 C124.43254,47.6748501 124.355111,47.6417473 124.324692,47.5727831 L117.928476,32.6268592 L95.4877949,25.3580314 L71.3657909,37.371597 L77.5297192,19.2533195 L95.4656722,25.0656232 L111.559913,17.0492233 L118.130345,32.4061738 L163.495641,47.1010678 L164.632193,54.463687 C164.643255,54.5381684 164.590713,54.6098911 164.518815,54.6209254 L164.496692,54.6209254 L164.496692,54.6209254 Z" id="Fill-66" fill="#FFFFFF"></path>
                    <path d="M29.8675374,55.5607697 C29.839884,55.5607697 29.814996,55.552494 29.7928734,55.5387011 C29.7292707,55.494564 29.7126787,55.411807 29.7541587,55.3483599 L36.2499271,45.6906118 L36.2720497,45.676819 L77.5418867,19.3104218 C77.6054894,19.2690433 77.6884494,19.2883533 77.7299294,19.3518003 C77.7714094,19.4152474 77.752052,19.500763 77.6884494,19.539383 L36.4435004,45.8919873 L29.9809161,55.5000812 C29.9532627,55.5387011 29.9117827,55.5607697 29.8675374,55.5607697" id="Fill-68" fill="#FFFFFF"></path>
                    <path d="M163.373414,47.3407874 C163.351291,47.3407874 163.326403,47.3352703 163.307046,47.324236 L112.079243,18.5634015 L78.2951635,19.1371837 C78.2232649,19.128908 78.1596622,19.0792538 78.1568969,19.0047724 C78.1568969,18.9302911 78.2149689,18.866844 78.2923982,18.866844 L112.148376,18.2903032 L112.18156,18.3068546 L163.439782,47.0869991 C163.50615,47.1228605 163.528272,47.2056176 163.492323,47.2718232 C163.467435,47.3159603 163.420424,47.3407874 163.373414,47.3407874" id="Fill-70" fill="#FFFFFF"></path>
                    <path d="M116.963375,138.626507 C116.963375,140.940946 118.473247,142.722981 120.815484,142.722981 C123.154956,142.722981 124.686951,140.940946 124.686951,138.626507 C124.686951,136.334136 123.154956,134.530033 120.815484,134.530033 C118.473247,134.530033 116.963375,136.334136 116.963375,138.626507" id="Fill-72" fill="#FFFFFF"></path>
                    <path d="M64.0849443,127.91802 C64.0849443,130.232459 65.5948164,132.014494 67.9370539,132.014494 C70.276526,132.014494 71.8085208,130.232459 71.8085208,127.91802 C71.8085208,125.625649 70.276526,123.821546 67.9370539,123.821546 C65.5948164,123.821546 64.0849443,125.625649 64.0849443,127.91802" id="Fill-74" fill="#FFFFFF"></path>
                    <path d="M78.269999,156.907816 C78.269999,158.030553 79.0028124,158.896743 80.1393644,158.896743 C81.2731512,158.896743 82.0170259,158.030553 82.0170259,156.907816 C82.0170259,155.796112 81.2731512,154.918888 80.1393644,154.918888 C79.0028124,154.918888 78.269999,155.796112 78.269999,156.907816" id="Fill-76" fill="#FFFFFF"></path>
                    <path d="M155.014087,127.916365 C155.014087,129.039102 155.7469,129.905293 156.883452,129.905293 C158.017239,129.905293 158.761114,129.039102 158.761114,127.916365 C158.761114,126.804662 158.017239,125.927437 156.883452,125.927437 C155.7469,125.927437 155.014087,126.804662 155.014087,127.916365" id="Fill-78" fill="#FFFFFF"></path>
                    <path d="M112.895846,155.781216 C112.895846,156.903954 113.628659,157.770144 114.765211,157.770144 C115.898998,157.770144 116.642873,156.903954 116.642873,155.781216 C116.642873,154.669513 115.898998,153.792288 114.765211,153.792288 C113.628659,153.792288 112.895846,154.669513 112.895846,155.781216" id="Fill-80" fill="#FFFFFF"></path>
                    <path d="M28.325864,127.606853 C28.325864,128.729591 29.0586773,129.595781 30.1952294,129.595781 C31.3290161,129.595781 32.0728908,128.729591 32.0728908,127.606853 C32.0728908,126.49515 31.3290161,125.617925 30.1952294,125.617925 C29.0586773,125.617925 28.325864,126.49515 28.325864,127.606853" id="Fill-82" fill="#FFFFFF"></path>
                    <path d="M69.6438177,128.31553 L121.897559,136.900195 L156.013478,127.087967 L69.6438177,128.31553 Z M121.914151,137.17881 L121.883733,137.173293 L68.086935,128.33484 L68.1062923,128.0645 L158.045999,126.787283 L121.914151,137.17881 Z" id="Fill-84" fill="#FFFFFF"></path>
                    <path d="M98.3894593,148.905209 L115.80553,154.546481 L121.668037,137.310945 L98.3894593,148.905209 Z M75.7220207,141.84879 L82.0850531,156.722991 L97.6704726,148.957621 L75.7220207,141.84879 Z M81.9495517,157.095398 L75.376354,141.738448 L30.0221195,127.046312 L30.0027622,126.974589 L24.2591645,106.85635 C24.2370419,106.784627 24.2785219,106.710146 24.3531859,106.690836 C24.4250845,106.668767 24.4997486,106.710146 24.5191059,106.781868 L30.2461115,126.831144 L75.235322,141.404661 L68.933127,126.676664 C68.9027083,126.6077 68.933127,126.527701 69.0050257,126.497357 C69.074159,126.469771 69.1543537,126.500116 69.182007,126.56908 L75.5782234,141.515004 L98.0189046,148.78659 L122.140909,136.770266 L115.97698,154.888543 L98.0410273,149.078998 L81.9495517,157.095398 Z" id="Fill-86" fill="#FFFFFF"></path>
                    <path d="M115.891808,154.854061 C115.847563,154.854061 115.803317,154.831993 115.775664,154.790614 C115.736949,154.727167 115.753541,154.64441 115.817144,154.603032 L157.037205,128.269737 L159.976754,111.227301 C159.987816,111.15282 160.059714,111.103166 160.134378,111.116959 C160.209042,111.127993 160.258818,111.199716 160.244992,111.274197 L157.286085,128.435251 L157.233544,128.465596 L115.966472,154.831993 C115.941584,154.845786 115.916696,154.854061 115.891808,154.854061" id="Fill-88" fill="#FFFFFF"></path>
                    <path d="M81.3577704,155.853215 L81.3245864,155.833905 L30.0663649,127.056519 C29.9999969,127.020658 29.9778742,126.9379 30.0138235,126.871695 C30.0525382,126.805489 30.1354982,126.783421 30.2018662,126.819282 L81.4269037,155.580117 L115.210983,155.006334 C115.282882,155.006334 115.34925,155.064264 115.34925,155.138746 C115.352015,155.213227 115.291178,155.276674 115.216514,155.276674 L81.3577704,155.853215 Z" id="Fill-90" fill="#FFFFFF"></path>
                    <path d="M68.1079515,128.337322 L68.1051862,128.337322 L30.0707894,127.678024 C29.9961254,127.675266 29.9352881,127.614577 29.9380534,127.540096 C29.9380534,127.462856 29.9905947,127.413202 30.0763201,127.404926 L68.1107168,128.064224 C68.1853808,128.066983 68.2462182,128.127671 68.2434528,128.204911 C68.2434528,128.279392 68.1826155,128.337322 68.1079515,128.337322" id="Fill-92" fill="#FFFFFF"></path>
                </g>
            </g>
        </g>
    </g>
</svg>