<?xml version="1.0" encoding="UTF-8"?>
<svg width="181px" height="174px" viewBox="0 0 181 174" version="1.1" xmlns="http://www.w3.org/2000/svg" xmlns:xlink="http://www.w3.org/1999/xlink">
    <!-- Generator: Sketch 41.2 (35397) - http://www.bohemiancoding.com/sketch -->
    <title>Sustainability</title>
    <desc>Created with Sketch.</desc>
    <defs>
        <polygon id="path-1" points="0 173.04358 179.916655 173.04358 179.916655 0.368456207 0 0.368456207"></polygon>
    </defs>
    <g id="Components" stroke="none" stroke-width="1" fill="none" fill-rule="evenodd">
        <g id="_carousel-desktop" transform="translate(-388.000000, -630.000000)">
            <g id="2" transform="translate(101.000000, 590.000000)">
                <g id="Sustainability" transform="translate(287.583333, 40.000000)">
                    <g id="Group-3" transform="translate(0.000000, 0.092464)">
                        <mask id="mask-2" fill="white">
                            <use xlink:href="#path-1"></use>
                        </mask>
                        <g id="Clip-2"></g>
                        <path d="M49.3724506,160.37021 C6.19279907,136.381118 -13.7566551,89.2096255 10.3981417,46.3261907 C34.5529384,3.44275595 88.6722416,-12.4107559 131.851893,11.5754759 C175.028664,35.5645683 194.744808,62.3513393 167.237259,129.032205 C148.480279,174.498773 92.5521022,184.359303 49.3724506,160.37021" id="Fill-1" fill="#FBC506" mask="url(#mask-2)"></path>
                    </g>
                    <path d="M140.966253,38.7762437 L155.736799,24.1070253 L161.497542,70.5862494 L114.697264,64.8650253 L128.646904,51.0110813 C123.81076,46.2996533 118.219958,42.5837183 111.88026,39.8632763 C105.537682,37.1456949 98.7169617,35.7869042 91.4152195,35.7869042 C85.7581696,35.7869042 80.3747549,36.6250635 75.2620952,38.3013821 C70.1523159,39.9777008 65.4544297,42.3119602 61.1655563,45.3012997 C56.8766829,48.2934999 53.1120372,51.8721255 49.871619,56.0400373 C46.6340813,60.2108096 44.0561487,64.742019 42.1378211,69.6336656 L25.8493194,63.5176771 C28.3120372,56.9010815 31.7137561,50.8308628 36.0458351,45.3012997 C40.3807944,39.7717367 45.4012822,35.0145389 51.1044181,31.0268458 C56.807554,27.0391526 63.0810035,23.9353886 69.9247666,21.7155536 C76.7685296,19.4957187 83.9320139,18.3858012 91.4152195,18.3858012 C96.2513635,18.3858012 100.95213,18.8606628 105.514639,19.8132466 C110.077148,20.7629698 114.458193,22.1246211 118.654894,23.8896188 C122.851596,25.657477 126.820748,27.7886329 130.562351,30.280226 C134.303954,32.7718191 137.771921,35.603825 140.966253,38.7762437 M91.4152195,140.1878 C97.0722695,140.1878 102.458564,139.349641 107.568344,137.673322 C112.678123,135.997004 117.376009,133.662744 121.664883,130.673405 C125.953756,127.681205 129.718402,124.102579 132.95882,119.934667 C136.199238,115.763895 138.777171,111.232686 140.692618,106.338178 L156.98112,112.457028 C154.518402,119.073623 151.119563,125.143842 146.784604,130.673405 C142.449645,136.200107 137.429157,140.960166 131.726021,144.947859 C126.022885,148.935552 119.749436,152.039316 112.905672,154.259151 C106.061909,156.478986 98.8984251,157.588903 91.4152195,157.588903 C86.5790755,157.588903 81.8783089,157.114042 77.3158002,156.161458 C72.7532915,155.208874 68.3751266,153.850083 64.1755447,152.082225 C59.9788432,150.317228 56.0096911,148.186072 52.2680883,145.694479 C48.5264855,143.202886 45.058518,140.37088 41.8641858,137.198461 L27.09364,151.867679 L21.3328966,105.388455 L68.1331754,111.109679 L54.1835354,124.963623 C59.0196794,129.675051 64.6104808,133.390986 70.9530592,136.111428 C77.2927573,138.82901 84.1163577,140.1878 91.4152195,140.1878" id="Fill-4" fill="#FFFFFF"></path>
                    <path d="M110.489329,64.3335236 L154.91042,69.7629652 L149.622058,27.1026582 C149.587494,26.8251788 149.408911,26.6049117 149.141036,26.5133721 C148.873161,26.4218325 148.596646,26.4876266 148.3979,26.6850088 L135.205798,39.7866119 L134.695972,39.2802836 C131.550606,36.1536346 128.085519,33.3273499 124.401524,30.8758054 C120.720409,28.4214003 116.754137,26.293105 112.612163,24.5509923 C108.48459,22.8088795 104.109305,21.4529494 99.6044042,20.5146687 C95.1167851,19.576388 90.4217793,19.0986658 85.6547642,19.0986658 C78.2781324,19.0986658 71.1232892,20.2085832 64.3889803,22.3940908 C57.6402695,24.582459 51.3725807,27.6833624 45.7587364,31.6138433 C40.1391312,35.5414636 35.1244042,40.2958008 30.8556934,45.7395455 C26.7310012,51.000211 23.4214541,56.8358595 21.0163438,63.1005999 L35.9683531,68.7159812 C37.8751591,64.0302988 40.4214077,59.6220956 43.5408502,55.6057964 C46.8043113,51.4006967 50.6582485,47.7391133 54.9903275,44.718307 C59.3224065,41.6975007 64.1297468,39.3088897 69.276971,37.6211286 C74.4357166,35.9276463 79.9458676,35.0723233 85.6547642,35.0723233 C93.0256353,35.0723233 100.004776,36.4625807 106.404962,39.2087683 C112.799387,41.9492346 118.514044,45.7481273 123.390513,50.4996039 L123.90898,51.0059322 L110.489329,64.3335236 Z M156.563754,71.4078172 L107.384288,65.3948107 L121.858156,51.0202353 C117.226518,46.6263352 111.837343,43.0934794 105.831768,40.5217892 C99.6159257,37.8528382 92.8268897,36.5026293 85.6547642,36.5026293 C80.0985273,36.5026293 74.741036,37.3350674 69.7291893,38.9799193 C64.7144623,40.6247712 60.0338583,42.9447276 55.8169942,45.8882973 C51.6030105,48.8261459 47.8556469,52.3904684 44.6814774,56.478283 C41.4986667,60.5746794 38.9322555,65.0887252 37.0484925,69.8945534 L36.789259,70.5553548 L19.1642648,63.9358986 L19.4119768,63.269376 C21.8919768,56.6155924 25.3599443,50.4223674 29.7179466,44.8613376 C34.0759489,39.3031685 39.1943693,34.4544311 44.9291893,30.443853 C50.6611289,26.433275 57.0584344,23.2694381 63.9396423,21.0353001 C70.8237305,18.8011621 78.1283531,17.6712204 85.6547642,17.6712204 C90.5225923,17.6712204 95.3155308,18.1546638 99.9010825,19.1101082 C104.495275,20.0712738 108.962732,21.4586707 113.176715,23.2322501 C117.39934,25.0144114 121.449143,27.1856159 125.202267,29.6857908 C128.765287,32.0600988 132.126681,34.7748196 135.202918,37.7670198 L147.381129,25.6723522 C147.968725,25.0916479 148.821315,24.8971263 149.607656,25.1603026 C150.396878,25.4292002 150.949909,26.1071652 151.053603,26.9310215 L156.563754,71.4078172 Z M36.1037305,136.186376 L36.6135563,136.692705 C39.7589222,139.819354 43.2240093,142.645638 46.9080046,145.097183 C50.5862393,147.551588 54.552511,149.679883 58.6973659,151.424857 C62.8422207,153.16983 67.2175052,154.52576 71.7051243,155.45832 C76.1927433,156.399461 80.8877491,156.874322 85.6547642,156.874322 C93.0285157,156.874322 100.183359,155.764405 106.920548,153.578897 C113.666379,151.390529 119.934067,148.289626 125.550792,144.364866 C131.173278,140.431525 136.185124,135.677187 140.453835,130.233443 C144.578527,124.972777 147.888074,119.134268 150.293185,112.872388 L135.338295,107.259868 C133.431489,111.951271 130.888121,116.359474 127.768678,120.370052 C124.496576,124.580873 120.645519,128.242457 116.319201,131.260402 C111.992883,134.272627 107.188423,136.661238 102.032557,138.35186 C96.8680511,140.048203 91.3579001,140.906386 85.6547642,140.906386 C78.2925343,140.906386 71.3105134,139.513268 64.9045668,136.767081 C58.5072613,134.020893 52.7926039,130.222 47.9190151,125.473384 L47.4005482,124.967056 L60.8201998,111.639465 L16.399108,106.210023 L21.68459,148.873191 C21.7220348,149.147809 21.9006179,149.370937 22.1684925,149.459616 C22.4334866,149.556877 22.7128827,149.488222 22.9116283,149.287979 L36.1037305,136.186376 Z M85.6547642,158.304629 C80.7869361,158.304629 75.9939977,157.818324 71.408446,156.86288 C66.8315354,155.910296 62.364079,154.522899 58.132813,152.743599 C53.9044274,150.961437 49.8575052,148.787372 46.104381,146.287197 C42.5442416,143.912889 39.1828479,141.198169 36.1066109,138.205968 L23.9283995,150.300636 C23.3436841,150.884201 22.4882137,151.078723 21.6989919,150.812686 C20.9126504,150.546649 20.359619,149.865823 20.2559257,149.047688 L14.7457747,104.565171 L63.9252404,110.578178 L49.4513728,124.952753 C54.0830105,129.346653 59.4693055,132.876648 65.4777607,135.45406 C71.6993635,138.123011 78.4883995,139.47608 85.6547642,139.47608 C91.2052404,139.47608 96.5627317,138.640781 101.580339,136.993069 C106.600827,135.345356 111.281431,133.0254 115.492534,130.087552 C119.700757,127.155424 123.448121,123.591102 126.628051,119.497566 C129.807981,115.406891 132.374393,110.889984 134.261036,106.081295 L134.520269,105.420494 L152.145264,112.03709 L151.894671,112.703612 C149.420432,119.354535 145.952465,125.54776 141.591582,131.111651 C137.23646,136.666959 132.118039,141.518557 126.380339,145.531996 C120.645519,149.539713 114.248214,152.706411 107.369886,154.937688 C100.485798,157.171826 93.1811754,158.304629 85.6547642,158.304629 L85.6547642,158.304629 Z" id="Fill-6" fill="#FBC506"></path>
                    <path d="M91.4152195,32.2102809 C98.7860906,32.2102809 105.765231,33.6005384 112.165417,36.3467259 C118.559842,39.0871922 124.274499,42.886085 129.150969,47.6404222 L129.669436,48.1438899 L117.292479,60.4359398 C117.093733,60.6361826 117.030365,60.9108013 117.122537,61.1768383 C117.214708,61.4428752 117.436497,61.6202331 117.713013,61.6545605 L159.757798,66.7922197 C159.973826,66.8179652 160.195614,66.7464499 160.351154,66.5891162 C160.509575,66.4317825 160.584465,66.2172366 160.558541,65.9969695 L155.382513,24.2434765 C155.347949,23.9631365 155.169366,23.7428694 154.901491,23.6541904 C154.633617,23.5655114 154.359981,23.6255843 154.158355,23.8229665 L140.966253,36.9245696 L140.456427,36.4211018 C137.311062,33.2944529 133.845974,30.4681682 130.161979,28.0137631 C126.480864,25.5622186 122.514592,23.4339233 118.372618,21.6889499 C114.245045,19.9496978 109.869761,18.5909071 105.364859,17.6526264 C100.87724,16.7143456 96.1822346,16.239484 91.4152195,16.239484 C84.0385877,16.239484 76.8866249,17.3494015 70.1494355,19.5320485 C63.4007247,21.7232773 57.133036,24.8241807 51.5191916,28.751801 C45.8995865,32.6794213 40.8848595,37.4337585 36.6161487,42.8775032 C32.4914564,48.1381687 29.1847898,53.9738172 26.7767991,60.2414181 L41.7288084,65.8567995 C43.6356144,61.1682564 46.181863,56.7600533 49.3013055,52.7466146 C52.5647666,48.541515 56.4187038,44.8799316 60.7507828,41.8562647 C65.0828618,38.8354584 69.8902021,36.4468474 75.0374262,34.7619469 C80.1961719,33.0684646 85.7063229,32.2102809 91.4152195,32.2102809 L91.4152195,32.2102809 Z M159.84997,68.2282469 C159.760678,68.2282469 159.668506,68.2225257 159.579215,68.2110832 L117.53731,63.073424 C116.713524,62.9733026 116.030876,62.4269257 115.760121,61.643118 C115.486485,60.8621709 115.685231,60.0097086 116.275707,59.4261437 L127.618611,48.158193 C122.986973,43.7642929 117.597798,40.2342977 111.592223,37.6597468 C105.376381,34.9936564 98.5873449,33.640587 91.4152195,33.640587 C85.8589826,33.640587 80.5014913,34.4730251 75.4896446,36.117877 C70.4749175,37.7627289 65.7943136,40.0855458 61.5774495,43.026255 C57.3634657,45.9669642 53.6161022,49.5312867 50.4419326,53.6162407 C47.259122,57.7126371 44.6927108,62.2266829 42.8089477,67.0353717 L42.5497143,67.6933124 L24.9247201,61.0767168 L25.1724321,60.4073336 C27.6524321,53.7535501 31.1203995,47.560325 35.4784019,42.0021559 C39.8364042,36.4411261 44.9548246,31.5923888 50.6896446,27.5846713 C56.4215842,23.5712326 62.8188897,20.4073958 69.7000976,18.1761184 C76.5841858,15.9419804 83.8888084,14.809178 91.4152195,14.809178 C96.2830476,14.809178 101.075986,15.2954821 105.661538,16.2509265 C110.255731,17.2120921 114.723187,18.5966283 118.937171,20.3702078 C123.159796,22.1523691 127.209598,24.3235736 130.962722,26.8237485 C134.525742,29.1980565 137.887136,31.9127773 140.963373,34.9049775 L153.141584,22.8131705 C153.72918,22.2324662 154.58465,22.035084 155.368111,22.2982603 C156.157333,22.5700184 156.710365,23.2451229 156.814058,24.0689791 L161.987206,65.8224722 C162.067856,66.480413 161.843187,67.1297719 161.370806,67.6017729 C160.961793,68.0079798 160.417403,68.2282469 159.84997,68.2282469 L159.84997,68.2282469 Z M41.8641858,133.327195 L42.3740116,133.830662 C45.5193775,136.957311 48.9844646,139.783596 52.6684599,142.238001 C56.3466945,144.689546 60.3129663,146.817841 64.4578211,148.565675 C68.602676,150.307788 72.9779605,151.666578 77.4655796,152.599138 C81.9531986,153.537419 86.6482044,154.01228 91.4152195,154.01228 C98.7918513,154.01228 105.943814,152.902363 112.681003,150.719716 C119.426834,148.528487 125.694523,145.427583 131.311247,141.502824 C136.933733,137.569482 141.94558,132.818006 146.21429,127.374261 C150.341863,122.113596 153.64853,116.275086 156.05364,110.010346 L141.101631,104.397825 C139.191944,109.089229 136.648576,113.497432 133.529134,117.50801 C130.257031,121.718831 126.405974,125.380414 122.079656,128.39836 C117.756218,131.413445 112.948878,133.802056 107.793013,135.489817 C102.628506,137.18616 97.1183554,138.044344 91.4152195,138.044344 C84.0529895,138.044344 77.0709686,136.654086 70.6650221,133.907899 C64.2677166,131.161711 58.5530592,127.362819 53.6794704,122.614203 L53.1610035,122.107874 L66.5806551,108.780283 L22.1595633,103.347981 L27.4479257,146.011148 C27.4824901,146.288628 27.6610732,146.508895 27.9289477,146.597574 C28.1939419,146.694835 28.473338,146.62618 28.6720836,146.428798 L41.8641858,133.327195 Z M91.4152195,155.442586 C86.5473914,155.442586 81.754453,154.956282 77.1689013,154.000838 C72.5919907,153.048254 68.1274146,151.663718 63.8932683,149.884417 C59.6648827,148.102256 55.6179605,145.928191 51.8677166,143.428016 C48.3046969,141.053708 44.9433031,138.338987 41.8670662,135.346787 L29.6888548,147.438594 C29.101259,148.022159 28.2515494,148.21668 27.4594472,147.953504 C26.6731057,147.684606 26.1200743,147.006641 26.016381,146.188506 L20.50623,101.705989 L69.6856957,107.718996 L55.2118281,122.093571 C59.8434657,126.484611 65.2297607,130.014606 71.238216,132.594878 C77.4598188,135.260968 84.2488548,136.614038 91.4152195,136.614038 C96.9656957,136.614038 102.323187,135.778739 107.340794,134.133887 C112.361282,132.486175 117.041886,130.163358 121.25299,127.22837 C125.461213,124.293382 129.208576,120.729059 132.388506,116.638384 C135.568437,112.544848 138.134848,108.030803 140.021491,103.219253 L140.280725,102.561312 L157.905719,109.175047 L157.658007,109.844431 C155.180887,116.495354 151.71292,122.688579 147.352037,128.249608 C142.996915,133.807777 137.878495,138.659375 132.140794,142.669954 C126.405974,146.680532 120.008669,149.844368 113.130341,152.075646 C106.246253,154.312644 98.9416307,155.442586 91.4152195,155.442586 L91.4152195,155.442586 Z" id="Fill-8" fill="#434143"></path>
                    <path d="M105.039954,89.2045427 C105.039954,81.8556304 91.6404646,63.8766839 91.6404646,63.8766839 C91.6404646,63.8766839 78.2380952,81.8556304 78.2380952,89.2045427 C78.2380952,96.553455 84.2379094,102.51211 91.6404646,102.51211 C99.0401394,102.51211 105.039954,96.553455 105.039954,89.2045427" id="Fill-10" fill="#FFFFFF"></path>
                    <path d="M89.4902671,66.901495 C86.8316841,70.5859633 76.8944019,84.7688777 76.8944019,90.8677025 C76.8944019,97.7646381 82.5456911,103.377159 89.4902671,103.377159 C96.4348432,103.377159 102.086132,97.7646381 102.086132,90.8677025 C102.086132,84.7688777 92.1488502,70.5859633 89.4902671,66.901495 M89.4902671,104.97338 C81.6585366,104.97338 75.2842741,98.6457066 75.2842741,90.8677025 C75.2842741,83.3385717 88.2891521,65.8058806 88.8450639,65.0649821 L89.4902671,64.1953561 L90.1383508,65.0649821 C90.6913821,65.8058806 103.69626,83.3385717 103.69626,90.8677025 C103.69626,98.6457066 97.3219977,104.97338 89.4902671,104.97338" id="Fill-12" fill="#434143"></path>
                </g>
            </g>
        </g>
    </g>
</svg>