<svg xmlns="http://www.w3.org/2000/svg" viewBox="0 0 469.49 121.04"><defs><style>.cls-1{fill:#fff;}</style></defs><title>spring-logo-white</title><g id="Layer_2" data-name="Layer 2"><g id="Layer_1-2" data-name="Layer 1"><path class="cls-1" d="M55.39,49.19H71C71,53.58,75.41,57,80.78,57c5.08,0,9-2.29,9-6.77,0-2.69-1.5-5.18-7.57-7.17L74,40.53C58.88,36.45,56,27.19,56,20.71,56,8.36,66.54,0,80.19,0c13.14,0,23.2,7.87,23.2,21.21H87.75c0-4.08-2.48-7.57-7.86-7.57-4.88,0-8.07,3-8.07,6.77,0,1.4.4,4.49,6.77,6.28l7.17,2.19c9.76,3,19.72,8.07,19.72,20.51,0,14.74-12.75,21-25.29,21C65.55,70.4,55.39,61.84,55.39,49.19Z"/><path class="cls-1" d="M178.77,23.6c0,11.45-7.18,22.6-23.11,22.6H143V69.51H127.38V.9h28.28C171.59.9,178.77,12.25,178.77,23.6ZM163,23.6c0-4.38-2.19-9.06-8-9.06H143v18H155C160.84,32.56,163,28,163,23.6Z"/><path class="cls-1" d="M217.89,45.41h-3.08v24.1H199.17V.9h28.08c15.94,0,23.11,11.35,23.11,22.7,0,9.66-5.08,18.12-16.13,20.91l17.72,25H233.73Zm-3.08-12.35h10c6.87,0,9.85-4.48,9.85-9.06s-3.08-9.46-9.46-9.46H214.81Z"/><path class="cls-1" d="M273.06.9h15.63V69.51H273.06Z"/><path class="cls-1" d="M366.36.9V69.51H352.62L330.11,30.07V69.51H314.48V.9h14.34l21.91,38.93V.9Z"/><path class="cls-1" d="M388.06,35.25A35,35,0,0,1,423.31,0c10.86,0,20.32,4.58,26.29,11.75l-11.55,9.66a19.23,19.23,0,0,0-14.74-6.87c-11.05,0-19.51,9.26-19.51,20.71,0,11.25,8.46,21.21,19.51,21.21,8,0,14.14-3.18,16.14-9.16a8,8,0,0,0,.49-1.59H420.62V33.06H457c0,26-13.94,37.34-33.66,37.34A35,35,0,0,1,388.06,35.25Z"/><path class="cls-1" d="M17,53v6.62H35.26v5.7H17V72H12.52V53Z"/><path class="cls-1" d="M12.52,26.09H35.26V31.8h-9v8.25h9v5.71H12.52V40.05h9.11V31.8H12.52Z"/><path class="cls-1" d="M30.74.26h4.52v16.4H12.52V.59H17V11h4.69V1.86h4.65V11h4.36Z"/><circle class="cls-1" cx="463.25" cy="114.8" r="6.24"/><circle class="cls-1" cx="421.6" cy="114.8" r="6.24"/><circle class="cls-1" cx="380.22" cy="114.8" r="6.24"/><circle class="cls-1" cx="338.65" cy="114.8" r="6.24"/><circle class="cls-1" cx="296.84" cy="114.8" r="6.24"/><circle class="cls-1" cx="255.52" cy="114.8" r="6.24"/><circle class="cls-1" cx="214.21" cy="114.8" r="6.24"/><circle class="cls-1" cx="172.43" cy="114.8" r="6.24"/><circle class="cls-1" cx="130.86" cy="114.8" r="6.24"/><circle class="cls-1" cx="89.05" cy="114.8" r="6.24"/><circle class="cls-1" cx="47.73" cy="114.8" r="6.24"/><circle class="cls-1" cx="6.24" cy="114.8" r="6.24"/></g></g></svg>