<?xml version="1.0" encoding="UTF-8"?>
<svg width="25px" height="35px" viewBox="0 0 25 35" version="1.1" xmlns="http://www.w3.org/2000/svg" xmlns:xlink="http://www.w3.org/1999/xlink">
    <!-- Generator: Sketch 41.2 (35397) - http://www.bohemiancoding.com/sketch -->
    <title>Group 9</title>
    <desc>Created with Sketch.</desc>
    <defs>
        <polygon id="path-1" points="22.6375676 0.156756757 0.421351351 0.156756757 0.421351351 32.4048649 22.6375676 32.4048649 22.6375676 0.156756757"></polygon>
        <polygon id="path-3" points="11.7754054 34.4594595 0 34.4594595 0 0.424324324 23.5508108 0.424324324 23.5508108 34.4594595 11.7754054 34.4594595"></polygon>
    </defs>
    <g id="US" stroke="none" stroke-width="1" fill="none" fill-rule="evenodd">
        <g id="_mobile" transform="translate(-147.000000, -2459.000000)">
            <g id="Group-9" transform="translate(147.000000, 2459.000000)">
                <g id="Page-1">
                    <g id="Group-3" transform="translate(2.027027, 0.518649)">
                        <mask id="mask-2" fill="white">
                            <use xlink:href="#path-1"></use>
                        </mask>
                        <g id="Clip-2"></g>
                        <path d="M22.6375676,21.2967568 C22.6375676,15.1616216 11.5294595,0.156216216 11.5294595,0.156216216 C11.5294595,0.156216216 0.421351351,15.1616216 0.421351351,21.2967568 C0.421351351,27.4318919 5.39432432,32.4048649 11.5294595,32.4048649 C17.6645946,32.4048649 22.6375676,27.4318919 22.6375676,21.2967568" id="Fill-1" fill="#FFFFFF" mask="url(#mask-2)"></path>
                    </g>
                    <g id="Group-6" transform="translate(0.000000, 0.518649)">
                        <mask id="mask-4" fill="white">
                            <use xlink:href="#path-3"></use>
                        </mask>
                        <g id="Clip-5"></g>
                        <path d="M11.7751351,2.68108108 C9.56972973,5.75675676 1.33459459,17.5945946 1.33459459,22.6837838 C1.33459459,28.4405405 6.01837838,33.1243243 11.7751351,33.1243243 C17.5318919,33.1243243 22.2156757,28.4405405 22.2156757,22.6837838 C22.2156757,17.5945946 13.9805405,5.75675676 11.7751351,2.68108108 M11.7751351,34.4594595 C5.28324324,34.4594595 -0.000540540543,29.1783784 -0.000540540543,22.6837838 C-0.000540540543,16.4027027 10.7805405,1.76756757 11.24,1.14864865 L11.7751351,0.424324324 L12.3102703,1.14864865 C12.7697297,1.76756757 23.5508108,16.4027027 23.5508108,22.6837838 C23.5508108,29.1783784 18.267027,34.4594595 11.7751351,34.4594595" id="Fill-4" fill="#358ACE" mask="url(#mask-4)"></path>
                    </g>
                </g>
            </g>
        </g>
    </g>
</svg>